# xmcd
#
# Track frame offsets:
#	150
#	19099
#	43446
#	65032
#	83981
#	97971
#
# Disc length: 1493 seconds
#
# Revision: 1
# Processed by: cddbd v1.5.1PL0 Copyright (c) Steve Scherf et al.
# Submitted via: audiograbber 1.83.01
#
DISCID=4d05d306
DTITLE=Al Green - Everything's OK
DYEAR=2005
DGENRE=Blues
TTITLE0=Perfect To Me
TTITLE1=Real Love
TTITLE2=Rainin' In My Heart
TTITLE3=Simply Beautiful
TTITLE4=One Woman
TTITLE5=Look What You Done For Me
EXTD=
EXTT0=
EXTT1=
EXTT2=
EXTT3=
EXTT4=
EXTT5=
PLAYORDER=
